<svg xmlns="http://www.w3.org/2000/svg" viewBox="0 0 464.79 480"><defs><style>.cls-1{fill:#42a5f5;}.cls-2{fill:#212121;}.cls-3{fill:#757575;}.cls-4{fill:#ff9800;}.cls-5{fill:#e0e0e0;}.cls-6{fill:#ffc98c;}</style></defs><title>notes</title><g id="Layer_2" data-name="Layer 2"><g id="Logo"><g id="Notebook"><rect class="cls-1" x="30" width="360" height="480" rx="48" ry="48"/><path class="cls-2" d="M78,0H90a0,0,0,0,1,0,0V480a0,0,0,0,1,0,0H78a48,48,0,0,1-48-48V48A48,48,0,0,1,78,0Z"/><rect class="cls-3" y="51" width="60" height="24" rx="12" ry="12"/><rect class="cls-3" y="135" width="60" height="24" rx="12" ry="12"/><rect class="cls-3" y="219" width="60" height="24" rx="12" ry="12"/><rect class="cls-3" y="303" width="60" height="24" rx="12" ry="12"/><rect class="cls-3" y="387" width="60" height="24" rx="12" ry="12"/><path class="cls-2" d="M175,122.51V136.3l-41.38,31.9H175V183h-67.2V170.27l42.72-33H107.77V122.51Z"/><path class="cls-2" d="M141.51,195.09h.2c19.41,0,35.31,15.31,35.31,36.39s-15.71,36.19-35.12,36.19h-.2c-19.41,0-35.31-15.32-35.31-36.39S122.1,195.09,141.51,195.09Zm0,56.45h.19c11.47,0,21-8.41,21-20.26s-9.36-20.06-20.83-20.06h-.19c-11.47,0-21,8.41-21,20.26S130.05,251.54,141.52,251.54Z"/><path class="cls-2" d="M161.53,294.54V273H175v56.45H161.53V309.33H107.77V294.54Z"/><path class="cls-2" d="M176.32,341.58v49.73H162.88V355H148.09v32.26H136V356.37H121.21v36.29H107.77V341.58Z"/><path class="cls-2" d="M117.71,400.95l10.53,8.79c-5,6.09-8.21,12.47-8.21,20.2,0,6.09,2.42,9.76,6.38,9.76h.13c3.79,0,5.74-2.34,8.66-13.72,3.5-13.72,7.3-22.57,20.82-22.57h.13c12.27,0,20.39,9.86,20.39,23.67a39.15,39.15,0,0,1-8.6,25.12l-11.21-7.73c4.16-6,6.67-11.89,6.67-17.59s-2.61-8.7-5.89-8.7h-.13c-4.48,0-5.93,2.92-9,14.69-3.6,13.82-8.56,21.6-20.43,21.6h-.13c-13.43,0-21-10.24-21-24.83A43,43,0,0,1,117.71,400.95Z"/><path class="cls-2" d="M133.79,81.74a11.1,11.1,0,0,0,11.15,11.11l22.3,0a11.15,11.15,0,1,0,0-22.3h-22.3A11.14,11.14,0,0,0,133.79,81.74Zm11.15,19.7c-11.15,0-19-9.44-19-19.7s7.81-19.7,19-19.7V55.72c-12.68,0-23.16,10.11-25,22.3H107.77v7.43H120c1.78,12.19,12.27,22.3,25,22.3Z"/></g><g id="Pencil"><rect class="cls-4" x="404.79" y="94.02" width="60" height="300"/><path class="cls-5" d="M420.79,34h28a16,16,0,0,1,16,16V70a0,0,0,0,1,0,0h-60a0,0,0,0,1,0,0V50A16,16,0,0,1,420.79,34Z"/><polygon class="cls-6" points="434.79 445.98 464.79 394.02 404.79 394.02 434.79 445.98"/><polygon class="cls-2" points="434.58 445.98 444.37 429.02 424.79 429.02 434.58 445.98"/><rect class="cls-2" x="404.79" y="70.02" width="60" height="30"/></g></g></g></svg>